<?xml version="1.0" standalone="no"?>
<!DOCTYPE svg PUBLIC "-//W3C//DTD SVG 20010904//EN"
 "http://www.w3.org/TR/2001/REC-SVG-20010904/DTD/svg10.dtd">
<svg version="1.0" xmlns="http://www.w3.org/2000/svg"
 width="566.000000pt" height="566.000000pt" viewBox="0 0 566.000000 566.000000"
 preserveAspectRatio="xMidYMid meet">
<metadata>
Created by potrace 1.14, written by Peter Selinger 2001-2017
</metadata>
<g transform="translate(0.000000,566.000000) scale(0.100000,-0.100000)"
fill="#000000" stroke="none">
<path d="M2560 5184 c-669 -90 -1240 -500 -1530 -1099 -86 -178 -139 -338
-177 -540 -24 -127 -29 -455 -9 -599 46 -326 168 -630 361 -901 85 -118 210
-254 252 -271 116 -49 247 49 229 171 -6 38 -19 58 -73 118 -103 113 -264 339
-251 352 7 7 267 -118 408 -196 354 -198 661 -429 945 -714 142 -142 345 -372
345 -391 0 -5 -107 -116 -237 -247 l-238 -238 115 -109 c63 -60 117 -109 120
-110 13 -1 1482 1483 1540 1555 577 725 588 1721 28 2457 -421 554 -1141 854
-1828 762z m586 -338 c682 -142 1180 -660 1311 -1361 20 -110 23 -395 5 -505
-56 -342 -187 -622 -409 -875 -40 -47 -79 -85 -86 -85 -7 0 -67 29 -133 65
l-121 66 -6 151 c-4 83 -7 193 -7 245 l0 93 -315 0 -315 0 0 -108 c0 -60 -3
-111 -6 -114 -3 -4 -25 1 -50 9 -43 14 -44 16 -44 57 0 23 -13 113 -29 200
l-29 159 20 34 c29 47 21 123 -16 162 -14 15 -26 37 -26 50 0 32 -25 75 -52
88 -44 21 -59 23 -92 9 -40 -17 -66 -51 -66 -87 0 -15 -6 -32 -14 -38 -12 -10
-15 -5 -21 29 -4 24 -19 56 -36 75 -16 18 -29 44 -29 57 0 35 -34 74 -75 88
-30 10 -41 9 -73 -7 -20 -10 -43 -30 -50 -45 -18 -39 -37 -26 -57 43 -16 51
-16 62 -5 69 12 7 11 12 -3 28 -10 11 -36 87 -57 168 -32 121 -40 166 -40 240
0 69 4 95 15 104 20 16 19 44 -2 61 -9 8 -24 32 -34 53 l-17 39 -15 -34 c-8
-19 -24 -43 -36 -53 -26 -24 -26 -36 -1 -69 35 -44 28 -140 -25 -329 -25 -88
-51 -169 -60 -178 -11 -12 -12 -19 -4 -27 13 -13 -14 -107 -38 -134 -8 -10
-20 -73 -30 -154 l-17 -137 -36 -27 c-68 -51 -81 -91 -50 -156 21 -43 27 -125
10 -125 -5 0 -10 22 -10 49 0 52 -10 67 -50 73 -25 3 -25 5 -28 106 -2 73 1
102 9 102 22 0 47 41 47 78 0 34 -27 86 -62 117 -34 30 -86 105 -86 124 0 12
-4 19 -10 16 -5 -3 -10 -14 -10 -23 0 -16 -29 -54 -89 -118 -62 -65 -73 -141
-27 -181 24 -20 26 -28 26 -102 0 -79 0 -80 -27 -83 -22 -2 -29 -9 -31 -30 -2
-20 -9 -28 -23 -28 -15 0 -19 -7 -19 -34 0 -19 -4 -38 -10 -41 -33 -20 15 -31
272 -60 445 -50 884 -160 1247 -314 254 -108 657 -328 774 -423 l28 -23 -89
-88 c-82 -82 -90 -87 -113 -77 -21 9 -45 3 -159 -40 -74 -29 -141 -55 -148
-59 -9 -5 10 -23 57 -54 39 -26 71 -50 71 -54 0 -11 -183 -193 -194 -193 -5 0
-64 53 -130 118 -256 250 -552 473 -880 662 -232 133 -585 292 -802 361 -69
21 -72 23 -98 76 -14 29 -22 53 -17 53 4 0 29 -6 54 -14 46 -14 87 -12 87 4 0
4 -36 13 -80 20 l-79 12 -25 67 c-72 189 -100 349 -100 571 0 236 33 416 115
624 221 559 728 950 1344 1035 123 17 393 5 531 -23z m-582 -1714 c40 -36 46
-47 45 -80 -1 -36 -1 -36 -9 -9 -5 16 -34 55 -64 87 -35 37 -56 67 -56 82 0
22 1 21 19 -7 10 -16 40 -49 65 -73z m-14 -97 c0 -7 -4 -17 -10 -20 -5 -3 -10
0 -10 8 0 8 -18 32 -40 55 -22 22 -40 50 -40 61 0 17 10 10 50 -34 28 -30 50
-62 50 -70z m311 -12 c38 -39 59 -70 59 -85 0 -22 -1 -21 -19 7 -10 17 -38 48
-61 69 -39 37 -60 72 -60 99 0 7 6 3 12 -8 6 -11 37 -48 69 -82z m-9 -94 c4
-9 2 -22 -3 -30 -7 -12 -9 -12 -9 0 0 8 -18 33 -40 57 -22 24 -40 52 -40 63 0
16 9 10 43 -27 24 -26 46 -54 49 -63z m-215 -71 c18 -31 19 -37 5 -86 -8 -28
-18 -52 -23 -52 -5 0 -9 24 -9 54 0 29 -2 82 -5 117 -3 46 -2 55 4 32 4 -17
17 -47 28 -65z m-547 -41 c0 -10 -20 5 -50 37 -27 29 -50 60 -50 69 0 10 20
-5 50 -37 28 -29 50 -60 50 -69z m-50 -30 c-1 -21 -1 -22 -12 -2 -6 11 -22 30
-35 42 -12 12 -23 29 -23 37 0 10 12 3 35 -20 19 -19 35 -45 35 -57z"/>
<path d="M3358 4450 c-13 -24 -24 -30 -49 -30 l-33 0 27 -28 c22 -23 26 -34
21 -60 -7 -35 -3 -38 28 -21 17 9 19 8 14 -8 -2 -10 -23 -88 -46 -173 -68
-255 -70 -260 -85 -260 -8 0 -15 -7 -15 -15 0 -8 -9 -20 -20 -27 -11 -7 -20
-20 -20 -29 0 -9 9 -19 20 -22 18 -5 20 -14 20 -101 0 -53 1 -96 3 -96 1 0 24
7 51 15 62 19 126 19 196 0 30 -8 56 -15 58 -15 1 0 2 41 2 91 0 67 4 94 15
105 8 9 15 24 15 35 0 10 -7 19 -15 19 -8 0 -15 7 -15 16 0 9 -8 18 -18 21
-16 4 -27 43 -67 216 -26 117 -50 218 -53 226 -4 11 -1 11 16 2 31 -16 34 -14
31 24 -3 27 2 39 19 51 29 20 28 34 -3 34 -25 0 -65 31 -65 50 0 19 -15 10
-32 -20z m57 -622 l27 -32 18 24 c16 21 20 22 35 10 9 -7 21 -22 26 -32 9 -17
3 -18 -96 -18 -116 0 -128 8 -80 55 31 32 38 31 70 -7z m-120 -18 l16 -30 -46
0 -46 0 16 30 c9 17 22 30 30 30 8 0 21 -13 30 -30z"/>
<path d="M3263 3560 l-43 -19 0 -61 c0 -33 -4 -60 -10 -60 -6 0 -10 -59 -10
-156 0 -141 -2 -156 -16 -150 -9 4 -24 0 -33 -9 -16 -13 -18 -8 -30 63 -22
134 -26 137 -40 32 -13 -100 -16 -194 -13 -402 l2 -128 315 0 315 0 2 118 c4
190 0 301 -13 395 -7 49 -15 83 -19 75 -4 -7 -13 -53 -20 -101 l-13 -88 -30
29 c-29 30 -30 31 -35 171 -3 78 -8 141 -13 141 -4 0 -9 30 -11 67 l-3 66 -50
18 c-68 24 -177 23 -232 -1z m162 -144 c70 -30 83 -120 25 -178 -23 -22 -37
-28 -73 -28 -55 0 -92 27 -108 79 -9 32 -8 44 6 75 29 61 83 80 150 52z m-180
-354 c-3 -19 -9 -31 -12 -28 -13 13 -14 89 -1 124 l13 37 3 -50 c2 -27 0 -65
-3 -83z m144 31 c1 -47 -2 -63 -13 -63 -14 0 -30 85 -21 114 17 52 17 52 25
31 5 -11 9 -48 9 -82z m135 75 c9 -35 7 -111 -4 -128 -7 -11 -11 -9 -19 13
-13 32 -14 61 -5 106 8 36 19 40 28 9z m-55 -102 c7 -8 11 -34 9 -58 -3 -40
-5 -43 -35 -46 l-33 -3 0 48 c0 65 30 94 59 59z m-284 -12 c10 -11 15 -29 13
-53 -3 -33 -6 -36 -35 -39 l-33 -3 0 50 c0 45 6 57 32 60 4 1 14 -6 23 -15z
m421 6 c6 -6 8 -29 5 -53 -6 -39 -9 -42 -38 -45 l-33 -3 0 55 c0 55 1 56 28
56 15 0 33 -5 38 -10z m-272 -16 c3 -9 6 -31 6 -50 0 -33 -1 -34 -40 -34 -39
0 -40 1 -40 34 0 51 9 66 40 66 16 0 30 -7 34 -16z m-174 -205 c0 -28 -4 -39
-15 -39 -11 0 -15 11 -15 38 0 21 3 42 6 45 14 13 24 -6 24 -44z m78 3 c3 -37
1 -42 -17 -42 -18 0 -21 6 -21 38 0 68 33 71 38 4z m72 -3 c0 -28 -4 -39 -15
-39 -11 0 -15 11 -15 38 0 21 3 42 6 45 14 13 24 -6 24 -44z m90 -5 c0 -27 -4
-34 -20 -34 -17 0 -20 7 -20 38 0 21 3 42 7 45 13 13 33 -16 33 -49z m70 5 c0
-28 -4 -39 -15 -39 -11 0 -15 11 -15 38 0 21 3 42 6 45 14 13 24 -6 24 -44z
m78 3 c2 -33 0 -42 -12 -42 -12 0 -16 11 -16 46 0 59 24 55 28 -4z m82 -2 c0
-29 -4 -40 -15 -40 -11 0 -15 11 -15 40 0 29 4 40 15 40 11 0 15 -11 15 -40z"/>
<path d="M1510 2508 c-23 -9 -14 -14 90 -49 63 -22 170 -60 237 -85 l122 -46
68 22 c37 12 72 26 76 30 13 11 -494 141 -545 139 -13 0 -34 -5 -48 -11z"/>
<path d="M2143 2321 c-39 -14 -74 -29 -77 -32 -3 -3 77 -44 178 -91 l184 -85
93 34 c52 18 101 36 109 39 11 4 9 9 -10 19 -33 17 -387 145 -397 144 -4 -1
-40 -13 -80 -28z"/>
<path d="M2693 2072 c-57 -20 -103 -40 -103 -43 0 -4 57 -39 128 -79 70 -40
184 -108 254 -152 l126 -79 137 58 c124 51 135 58 118 71 -37 28 -499 252
-528 256 -19 3 -68 -9 -132 -32z"/>
</g>
</svg>
